<svg width="50" height="55" viewBox="0 0 50 55" fill="none" xmlns="http://www.w3.org/2000/svg">
<path d="M10.6586 21.334C9.72827 17.6129 11.2075 16.8923 11.6025 15.2488L10.3774 15.6806C7.92728 22.6395 9.39333 22.4386 18.24 32.7112C25.3174 40.9293 22.6382 49.8152 20.8508 53.0151C20.8508 53.0151 21.4031 54.2307 26.2231 53.9997C31.0431 53.7687 31.4046 52.5835 31.4046 52.5835C31.4046 52.5835 27.2172 45.8657 29.2657 40.3328C38.4317 26.17 32.2949 16.5709 28.0808 13.5417C27.013 13.3074 25.4158 13.114 27.5687 14.2145C30.2598 15.5902 31.7962 21.4846 31.5954 26.5054C31.3945 31.5262 28.7536 38.3546 26.2231 38.1236C23.6926 37.8927 22.0759 33.384 19.5454 30.8133C17.0149 28.2426 11.1707 23.3825 10.6586 21.334Z" fill="#596D79"/>
<path d="M10.9294 22.7404C9.79675 21.2944 7.52196 21.7663 6.56131 22.0073L6.46094 22.7404C8.81064 22.2082 11.4148 24.6885 12.998 26.0641C12.8675 25.8734 12.0622 24.1864 10.9294 22.7404Z" fill="#596D79"/>
<path d="M17.7247 29.7596C17.1945 28.7714 17.8787 27.5002 18.2871 26.988L19.1908 27.4701C18.1867 29.0868 19.2209 30.6131 19.9239 31.4365C19.4117 31.2892 18.2549 30.7476 17.7247 29.7596Z" fill="#596D79"/>
<path d="M23.1278 39.6098C17.2875 38.4368 13.6987 34.1672 12.6343 32.179L11.8008 32.3496C15.5604 39.0655 21.1462 41.9628 23.4692 42.572L23.1278 39.6098Z" fill="#596D79"/>
<path d="M27.6723 40.4734C30.0501 40.0717 33.0345 38.0433 34.2295 37.0793L34.4303 37.8425C33.3619 39.0636 30.0555 41.4642 28.5359 42.5119C27.2572 41.9997 25.2944 40.8751 27.6723 40.4734Z" fill="#596D79"/>
<path d="M30.7334 34.2178C29.3999 34.1134 28.3569 31.5032 28.0021 30.2112L27.5703 30.6128C27.7631 32.5006 28.6481 35.0981 29.2674 35.9449L30.7334 34.2178Z" fill="#596D79"/>
<path d="M42.1911 30.0502C37.9736 28.6685 33.8398 31.0744 32.3001 32.4502L31.8281 34.9104C37.0016 30.1627 39.9317 30.3515 41.3275 30.7833L42.1911 30.0502Z" fill="#596D79"/>
<path d="M32.5 27.5196C35.6732 27.8731 41.2195 22.6862 43.596 20.0486L44.0981 20.3197C42.3147 23.999 35.6229 28.4735 32.5 30.2509V27.5196Z" fill="#596D79"/>
<path d="M37.9588 12.9185C36.9225 15.9792 32.8409 17.1928 30.9297 17.4171L32.2954 19.5158C35.838 17.6441 38.0157 15.208 38.6617 14.2239L37.9588 12.9185Z" fill="#596D79"/>
<path d="M31.9235 21.3547C21.175 18.3984 18.3874 11.6612 18.3372 8.66211H17.3029C17.0137 16.1009 27.1973 22.707 32.3252 25.0801L31.9235 21.3547Z" fill="#596D79"/>
<path d="M17.1221 10.5645C20.0394 10.5645 22.4043 8.19956 22.4043 5.28225C22.4043 2.36494 20.0394 0 17.1221 0C14.2048 0 11.8398 2.36494 11.8398 5.28225C11.8398 8.19956 14.2048 10.5645 17.1221 10.5645Z" fill="#596D79"/>
<path d="M26.3183 15.6644C28.632 15.6644 30.5076 13.7887 30.5076 11.475C30.5076 9.16129 28.632 7.28564 26.3183 7.28564C24.0045 7.28564 22.1289 9.16129 22.1289 11.475C22.1289 13.7887 24.0045 15.6644 26.3183 15.6644Z" fill="#596D79"/>
<path d="M40.0699 17.1216C42.1322 17.1216 43.8039 15.4498 43.8039 13.3876C43.8039 11.3253 42.1322 9.65356 40.0699 9.65356C38.0077 9.65356 36.3359 11.3253 36.3359 13.3876C36.3359 15.4498 38.0077 17.1216 40.0699 17.1216Z" fill="#596D79"/>
<path d="M45.903 25.3184C48.1664 25.3184 50.0013 23.4835 50.0013 21.2201C50.0013 18.9567 48.1664 17.1218 45.903 17.1218C43.6396 17.1218 41.8047 18.9567 41.8047 21.2201C41.8047 23.4835 43.6396 25.3184 45.903 25.3184Z" fill="#596D79"/>
<path d="M44.1686 35.7918C46.432 35.7918 48.2669 33.9569 48.2669 31.6935C48.2669 29.4301 46.432 27.5952 44.1686 27.5952C41.9052 27.5952 40.0703 29.4301 40.0703 31.6935C40.0703 33.9569 41.9052 35.7918 44.1686 35.7918Z" fill="#596D79"/>
<path d="M36.3372 40.5282C38.148 40.5282 39.6159 39.0603 39.6159 37.2496C39.6159 35.4388 38.148 33.9709 36.3372 33.9709C34.5265 33.9709 33.0586 35.4388 33.0586 37.2496C33.0586 39.0603 34.5265 40.5282 36.3372 40.5282Z" fill="#596D79"/>
<path d="M27.2308 32.4224C28.8403 32.4224 30.1451 31.1176 30.1451 29.5081C30.1451 27.8985 28.8403 26.5938 27.2308 26.5938C25.6212 26.5938 24.3164 27.8985 24.3164 29.5081C24.3164 31.1176 25.6212 32.4224 27.2308 32.4224Z" fill="#596D79"/>
<path d="M20.0343 28.5965C22.3984 28.5965 24.3148 26.6801 24.3148 24.3161C24.3148 21.9521 22.3984 20.0356 20.0343 20.0356C17.6703 20.0356 15.7539 21.9521 15.7539 24.3161C15.7539 26.6801 17.6703 28.5965 20.0343 28.5965Z" fill="#596D79"/>
<path d="M11.1139 17.1216C13.3773 17.1216 15.2122 15.2868 15.2122 13.0233C15.2122 10.7599 13.3773 8.92505 11.1139 8.92505C8.85049 8.92505 7.01562 10.7599 7.01562 13.0233C7.01562 15.2868 8.85049 17.1216 11.1139 17.1216Z" fill="#596D79"/>
<path d="M4.09829 25.6822C6.36172 25.6822 8.19659 23.8473 8.19659 21.5839C8.19659 19.3205 6.36172 17.4856 4.09829 17.4856C1.83487 17.4856 0 19.3205 0 21.5839C0 23.8473 1.83487 25.6822 4.09829 25.6822Z" fill="#596D79"/>
<path d="M10.5634 34.9722C12.6759 34.9722 14.3884 33.2596 14.3884 31.1471C14.3884 29.0346 12.6759 27.322 10.5634 27.322C8.45083 27.322 6.73828 29.0346 6.73828 31.1471C6.73828 33.2596 8.45083 34.9722 10.5634 34.9722Z" fill="#596D79"/>
</svg>
