<?xml version="1.0" encoding="UTF-8" standalone="no"?>
<svg
   xmlns:dc="http://purl.org/dc/elements/1.1/"
   xmlns:cc="http://creativecommons.org/ns#"
   xmlns:rdf="http://www.w3.org/1999/02/22-rdf-syntax-ns#"
   xmlns:svg="http://www.w3.org/2000/svg"
   xmlns="http://www.w3.org/2000/svg"
   viewBox="0 0 809.51276 154.77352"
   height="154.77351"
   width="809.51276"
   xml:space="preserve"
   id="svg2"
   version="1.1"><metadata
     id="metadata8"><rdf:RDF><cc:Work
         rdf:about=""><dc:format>image/svg+xml</dc:format><dc:type
           rdf:resource="http://purl.org/dc/dcmitype/StillImage" /></cc:Work></rdf:RDF></metadata><defs
     id="defs6" /><g
     transform="matrix(1.3333333,0,0,-1.3333333,-3.0432266,157.648)"
     id="g10"><g
       transform="scale(0.1)"
       id="g12"><path
         id="path14"
         style="fill:#1b81ba;fill-opacity:1;fill-rule:nonzero;stroke:none"
         d="M 1241.74,999.918 632.281,1182.36 22.8242,999.918 V 914.035 L 632.281,1095.23 1241.74,914.035 v 85.883" /><path
         id="path16"
         style="fill:#1b81ba;fill-opacity:1;fill-rule:nonzero;stroke:none"
         d="M 203.984,479.066 H 120 v 408.469 h 83.984 V 479.066" /><path
         id="path18"
         style="fill:#99d03e;fill-opacity:1;fill-rule:nonzero;stroke:none"
         d="M 462.82,479.066 H 378.836 V 887.535 H 462.82 V 479.066" /><path
         id="path20"
         style="fill:#99d03e;fill-opacity:1;fill-rule:nonzero;stroke:none"
         d="m 1153.89,479.066 h -83.98 v 408.469 h 83.98 V 479.066" /><path
         id="path22"
         style="fill:#1b81ba;fill-opacity:1;fill-rule:nonzero;stroke:none"
         d="m 570.973,479.066 h -83.985 v 473.032 h 83.985 V 479.066" /><path
         id="path24"
         style="fill:#fbc934;fill-opacity:1;fill-rule:nonzero;stroke:none"
         d="m 678.102,479.066 h -83.985 v 434.129 h 83.985 V 479.066" /><path
         id="path26"
         style="fill:#fbc934;fill-opacity:1;fill-rule:nonzero;stroke:none"
         d="m 1045.49,479.066 h -83.986 v 434.129 h 83.986 V 479.066" /><path
         id="path28"
         style="fill:#99d03e;fill-opacity:1;fill-rule:nonzero;stroke:none"
         d="m 786.258,479.066 h -83.985 v 473.032 h 83.985 V 479.066" /><path
         id="path30"
         style="fill:#1b81ba;fill-opacity:1;fill-rule:nonzero;stroke:none"
         d="m 943.113,485.762 -83.586,-6.696 -56.097,468.567 83.582,6.691 56.101,-468.562" /><path
         id="path32"
         style="fill:#fbc934;fill-opacity:1;fill-rule:nonzero;stroke:none"
         d="m 222.379,485.762 83.582,-6.696 56.102,468.567 -83.586,6.691 -56.098,-468.562" /><path
         id="path34"
         style="fill:#615950;fill-opacity:1;fill-rule:nonzero;stroke:none"
         d="M 329.891,236.988 294.996,85.7813 H 259.09 L 228.75,188.191 c -2.789,10.118 -5.562,21.239 -7.082,32.11 h -0.246 c -1.27,-10.871 -3.293,-21.75 -6.067,-32.371 L 186.773,85.7813 H 150.871 L 115.473,236.988 c -4.293,0.504 -10.114,1.516 -14.16,2.528 v 16.933 h 61.941 v -16.672 c -5.809,-1.273 -12.629,-2.543 -18.957,-3.035 l 20.734,-87.504 c 2.528,-11.367 4.551,-23.508 6.313,-34.879 h 0.261 c 1.762,11.129 4.305,23.262 7.079,33.871 l 31.093,108.219 h 26.817 L 269.711,146.73 c 2.773,-9.628 5.562,-21.5 7.586,-32.371 h 0.246 c 1.012,10.871 2.789,21.243 4.305,30.84 l 20.226,91.543 c -6.328,0.492 -12.64,1.762 -18.465,3.035 v 16.672 h 60.688 v -16.933 c -4.047,-1.012 -9.856,-2.024 -14.406,-2.528" /><path
         id="path36"
         style="fill:#615950;fill-opacity:1;fill-rule:nonzero;stroke:none"
         d="m 406.059,191.23 c -16.688,0 -32.364,-12.66 -32.364,-42.48 0,-27.309 10.868,-42.23 32.106,-42.23 17.711,0 32.117,13.652 32.117,42.23 0,27.309 -10.879,42.48 -31.859,42.48 z M 403.285,83.25 c -34.906,0 -57.406,19.469 -57.406,63.219 0,38.429 24.273,67.504 62.465,67.504 33.621,0 57.386,-18.453 57.386,-63.203 0,-38.43 -24.531,-67.52 -62.445,-67.52" /><path
         id="path38"
         style="fill:#615950;fill-opacity:1;fill-rule:nonzero;stroke:none"
         d="m 573.723,187.18 c -27.555,4.8 -39.942,-12.649 -39.942,-50.321 V 105.75 c 7.574,-0.488 15.418,-1.762 21.992,-3.281 V 85.7813 h -70.796 v 16.6877 c 6.574,1.519 14.418,2.793 21.992,3.281 v 84.711 c -6.071,1.008 -14.653,2.027 -21.992,2.527 v 16.692 c 14.16,1.519 32.363,2.527 47.535,1.777 0,-7.078 -0.75,-18.207 -2.282,-27.828 h 0.258 c 5.813,16.949 18.465,32.625 44.504,30.098 l -1.269,-26.547" /><path
         id="path40"
         style="fill:#615950;fill-opacity:1;fill-rule:nonzero;stroke:none"
         d="m 585.637,85.7813 v 16.6877 c 6.07,1.519 13.656,2.793 20.734,3.281 v 143.621 c -6.066,1.012 -14.418,2.024 -21.5,2.543 v 16.676 c 14.422,1.527 32.121,2.539 48.551,1.773 V 105.75 c 7.34,-0.488 14.676,-1.762 20.746,-3.281 V 85.7813 h -68.531" /><path
         id="path42"
         style="fill:#615950;fill-opacity:1;fill-rule:nonzero;stroke:none"
         d="m 755.063,189.699 c -6.821,1.531 -13.395,2.281 -19.969,2.281 -21.5,0 -36.149,-13.148 -36.149,-47.031 0,-25.289 7.828,-39.437 25.024,-39.437 19.969,0 31.094,23.758 31.094,45.258 z m 1.273,-103.9177 c 0,6.5781 0.504,16.4487 1.762,23.5197 h -0.493 C 750.77,93.8711 736.105,83.25 716.629,83.25 c -30.832,0 -46.266,22.762 -46.266,59.172 0,43.226 25.028,71.058 65.742,71.058 6.071,0 12.137,-0.519 18.958,-1.011 v 36.902 c -6.071,1.012 -14.653,2.024 -21.993,2.543 v 16.676 c 14.16,1.527 32.368,2.539 48.809,1.773 V 106.762 c 6.066,-1.012 14.406,-2.024 20.98,-2.512 V 87.5508 c -13.148,-1.5117 -31.355,-2.5195 -46.523,-1.7695" /><path
         id="path44"
         style="fill:#615950;fill-opacity:1;fill-rule:nonzero;stroke:none"
         d="m 956.129,83.5 c -52.336,0 -78.629,31.871 -78.629,82.941 0,53.352 28.316,92.032 83.945,92.032 13.641,0 27.309,-2.024 40.195,-5.055 v -44.746 h -20.226 c -1.519,8.09 -2.281,15.414 -3.035,22.246 -7.586,1.777 -14.664,2.789 -21.746,2.789 -32.117,0 -49.051,-26.559 -49.051,-62.707 0,-38.43 16.688,-62.711 54.613,-62.711 13.149,0 27.817,3.281 37.925,8.09 l 4.3,-23.7774 C 990.516,87.3008 972.816,83.5 956.129,83.5" /><path
         id="path46"
         style="fill:#615950;fill-opacity:1;fill-rule:nonzero;stroke:none"
         d="m 1120.75,85.7813 v 80.6597 c 0,15.688 -4.29,25.028 -18.69,25.028 -18.97,0 -32.89,-19.981 -32.89,-45.258 V 105.75 c 6.59,-0.488 13.41,-1.5 19.48,-3.031 V 85.7813 h -67.26 v 16.6877 c 6.32,1.519 13.66,2.793 20.74,3.281 v 143.621 c -6.07,1.012 -14.42,2.024 -21.5,2.543 v 16.676 c 13.91,1.527 32.11,2.539 48.54,1.773 v -57.144 c 0,-7.828 -0.49,-18.207 -2.27,-25.289 l 0.51,-0.258 c 7.34,15.937 22.25,26.301 42.74,26.301 28.56,0 37.67,-18.203 37.67,-40.203 v -68.02 c 6.83,-0.488 14.4,-1.762 20.73,-3.281 V 85.7813 h -47.8" /><path
         id="path48"
         style="fill:#615950;fill-opacity:1;fill-rule:nonzero;stroke:none"
         d="m 1257.6,142.68 c -34.64,0 -48.05,-8.352 -48.05,-21.5 0,-9.848 6.82,-16.93 17.46,-16.93 18.45,0 30.59,17.68 30.59,35.641 z m 2.02,-56.8987 c 0,8.0898 0.24,16.4487 1.26,23.2697 l -0.25,0.25 c -6.07,-14.9221 -22.01,-26.051 -41.71,-26.051 -21.5,0 -35.4,13.3984 -35.4,33.891 0,28.32 28.81,43.23 74.08,43.75 v 8.328 c 0,15.679 -5.83,24.781 -24.52,24.781 -6.84,0 -14.93,-1.512 -21.24,-3.539 -0.52,-5.563 -1.53,-12.133 -2.79,-18.711 h -16.69 v 35.398 c 12.64,4.051 28.06,6.825 42.98,6.825 38.68,0 49.56,-16.672 49.56,-42.485 v -64.726 c 6.07,-1.012 14.16,-2.024 21,-2.512 V 87.5508 c -13.15,-1.5117 -31.62,-2.5195 -46.28,-1.7695" /><path
         id="path50"
         style="fill:#615950;fill-opacity:1;fill-rule:nonzero;stroke:none"
         d="m 1419.69,85.7813 v 80.6597 c 0,15.688 -4.29,25.028 -18.69,25.028 -18.73,0 -32.89,-19.981 -32.89,-45.258 V 105.75 c 6.59,-0.488 13.67,-1.5 19.48,-3.031 V 85.7813 h -68.27 v 16.6877 c 6.57,1.519 14.4,2.793 22,3.281 v 84.711 c -6.06,1.008 -14.68,2.027 -22,2.527 v 16.692 c 14.16,1.519 32.36,2.527 47.53,1.777 0,-6.586 -0.5,-17.457 -1.77,-24.797 h 0.52 c 7.32,16.192 22.49,27.313 43.49,27.313 28.56,0 37.67,-18.203 37.67,-40.203 v -68.02 c 7.32,-0.488 14.66,-1.762 20.73,-3.281 V 85.7813 h -47.8" /><path
         id="path52"
         style="fill:#615950;fill-opacity:1;fill-rule:nonzero;stroke:none"
         d="m 1540.11,194 c -16.95,0 -26.81,-10.859 -26.81,-25.281 0,-15.68 9.37,-25.028 26.3,-25.028 16.44,0 26.56,9.348 26.56,25.028 0,15.429 -9.37,25.281 -26.05,25.281 z M 1554.02,85.5195 1531,86.2891 h -6.83 c -8.58,-6.0703 -14.16,-13.6602 -14.16,-22.25 0,-13.3985 12.66,-21.4883 30.86,-21.4883 23.51,0 36.41,10.6094 36.41,24.2695 0,10.8711 -7.08,17.9492 -23.26,18.6992 z m -17.45,-63.9609 c -32.87,0 -53.35,13.1523 -53.35,37.6719 0,13.9101 9.6,26.289 20.48,32.3593 -7.59,3.3008 -12.39,10.3792 -12.39,18.9692 0,9.101 5.81,17.703 14.41,21.75 -11.63,6.57 -18.71,17.941 -18.71,34.39 0,25.281 18.71,47.274 54.35,47.274 7.34,0 12.4,-1.012 18.97,-2.516 h 42.73 v -21.238 h -19.22 c 5.32,-4.571 8.35,-11.649 8.35,-19.981 0,-26.297 -17.7,-45.519 -53.34,-45.519 -4.57,0 -7.85,0.511 -11.89,1.519 -4.81,-2.277 -7.33,-6.066 -7.33,-9.359 0,-6.559 5.81,-8.59 20.72,-9.109 l 21.24,-0.75 c 27.31,-1.008 42.48,-13.1489 42.48,-36.4106 0,-27.0508 -27.05,-49.0508 -67.5,-49.0508" /><path
         id="path54"
         style="fill:#615950;fill-opacity:1;fill-rule:nonzero;stroke:none"
         d="m 1679.71,193.738 c -15.17,0 -25.78,-11.367 -28.06,-28.808 h 53.34 c 0.52,17.691 -9.35,28.808 -25.28,28.808 z m 51.33,-47.527 h -79.9 c -0.76,-28.57 11.37,-41.211 37.18,-41.211 12.14,0 24.76,2.531 36.15,7.34 l 3.54,-20.9884 c -13.15,-5.0625 -28.83,-8.1016 -44.5,-8.1016 -38.68,0 -60.18,20.23 -60.18,64.488 0,37.672 21.5,66.235 57.91,66.235 35.89,0 50.81,-23.754 50.81,-52.332 0,-4.051 -0.24,-10.121 -1.01,-15.43" /><path
         id="path56"
         style="fill:#615950;fill-opacity:1;fill-rule:nonzero;stroke:none"
         d="m 1855.23,83.25 c -13.4,0 -26.54,1.5195 -37.42,4.3008 v 42.7302 h 20.22 c 1.26,-7.832 2.53,-15.672 3.04,-21.742 4.81,-1.258 10.88,-2.019 16.95,-2.019 18.2,0 32.85,7.582 32.85,26.539 0,35.921 -76.1,20.492 -76.1,76.113 0,29.332 22.76,49.82 61.94,49.82 12.14,0 22.77,-1.269 34.14,-3.554 V 214.23 h -20.22 c -1.52,7.34 -2.53,15.172 -3.04,21.243 -3.03,0.75 -8.33,1.269 -12.9,1.269 -20.47,0 -31.09,-9.867 -31.09,-24.027 0,-34.895 76.36,-22.004 76.36,-75.356 0,-31.347 -24.78,-54.109 -64.73,-54.109" /><path
         id="path58"
         style="fill:#615950;fill-opacity:1;fill-rule:nonzero;stroke:none"
         d="m 1993.33,83.5 c -26.82,0 -34.91,10.3711 -34.91,38.43 v 68.531 h -24.02 v 20.996 h 24.02 v 39.938 l 27.06,7.339 v -47.277 h 32.87 v -20.996 h -32.87 v -60.18 c 0,-18.711 3.8,-23.761 16.43,-23.761 5.58,0 10.88,0.761 15.43,1.769 l 2.28,-21.7577 C 2012.02,84.7695 2001.66,83.5 1993.33,83.5" /><path
         id="path60"
         style="fill:#615950;fill-opacity:1;fill-rule:nonzero;stroke:none"
         d="m 2114.2,142.68 c -34.63,0 -48.04,-8.352 -48.04,-21.5 0,-9.848 6.82,-16.93 17.45,-16.93 18.46,0 30.59,17.68 30.59,35.641 z m 2.03,-56.8987 c 0,8.0898 0.24,16.4487 1.25,23.2697 l -0.24,0.25 c -6.07,-14.9221 -22.01,-26.051 -41.72,-26.051 -21.5,0 -35.4,13.3984 -35.4,33.891 0,28.32 28.82,43.23 74.08,43.75 v 8.328 c 0,15.679 -5.82,24.781 -24.52,24.781 -6.83,0 -14.92,-1.512 -21.24,-3.539 -0.52,-5.563 -1.53,-12.133 -2.79,-18.711 h -16.68 v 35.398 c 12.64,4.051 28.06,6.825 42.98,6.825 38.68,0 49.56,-16.672 49.56,-42.485 v -64.726 c 6.07,-1.012 14.16,-2.024 20.99,-2.512 V 87.5508 c -13.14,-1.5117 -31.61,-2.5195 -46.27,-1.7695" /><path
         id="path62"
         style="fill:#615950;fill-opacity:1;fill-rule:nonzero;stroke:none"
         d="m 2264.68,187.18 c -27.56,4.8 -39.96,-12.649 -39.96,-50.321 V 105.75 c 7.6,-0.488 15.43,-1.762 22,-3.281 V 85.7813 h -70.79 v 16.6877 c 6.57,1.519 14.4,2.793 22,3.281 v 84.711 c -6.07,1.008 -14.68,2.027 -22,2.527 v 16.692 c 14.16,1.519 32.36,2.527 47.53,1.777 0,-7.078 -0.76,-18.207 -2.27,-27.828 h 0.25 c 5.82,16.949 18.45,32.625 44.5,30.098 l -1.26,-26.547" /><path
         id="path64"
         style="fill:#615950;fill-opacity:1;fill-rule:nonzero;stroke:none"
         d="m 2333.98,83.5 c -26.79,0 -34.88,10.3711 -34.88,38.43 v 68.531 h -24.03 v 20.996 h 24.03 v 39.938 l 27.05,7.339 v -47.277 h 32.87 v -20.996 h -32.87 v -60.18 c 0,-18.711 3.78,-23.761 16.44,-23.761 5.55,0 10.86,0.761 15.42,1.769 l 2.26,-21.7577 C 2352.7,84.7695 2342.33,83.5 2333.98,83.5" /><path
         id="path66"
         style="fill:#615950;fill-opacity:1;fill-rule:nonzero;stroke:none"
         d="m 2415.42,83.25 c -9.6,0 -21.74,1.2617 -31.09,3.5391 v 36.6719 h 16.93 c 1.28,-5.82 2.29,-12.391 2.78,-18.461 4.04,-1.012 9.36,-1.27 13.91,-1.27 15.17,0 25.53,6.59 25.53,17.45 0,25.289 -61.94,10.871 -61.94,53.871 0,21.988 17.96,38.922 52.09,38.922 9.1,0 20.23,-1.504 30.6,-3.785 v -35.137 h -16.7 c -1.5,5.801 -2.52,12.379 -3.04,18.199 -3.78,0.75 -8.58,1.262 -12.88,1.262 -15.43,0 -23.01,-6.321 -23.01,-16.434 0,-25.539 61.95,-12.398 61.95,-52.848 0,-23.769 -21,-41.98 -55.13,-41.98" /><path
         id="path68"
         style="fill:#615950;fill-opacity:1;fill-rule:nonzero;stroke:none"
         d="M 2740.86,191.719 2707.75,85.7813 h -30.34 l -22,65.7387 c -2.54,8.359 -4.81,16.941 -7.08,26.558 h -0.26 c -2.52,-11.129 -5.56,-20.988 -8.84,-31.609 l -18.72,-60.6877 h -30.35 l -31.59,105.9377 c -5.06,0.769 -10.36,1.531 -14.93,2.793 v 16.945 h 58.92 v -16.945 c -4.8,-1.262 -9.85,-2.024 -15.43,-2.532 l 12.9,-47.281 c 2.79,-10.109 5.83,-19.98 7.85,-28.828 h 0.24 c 2.27,11.379 5.57,22 8.6,32.109 l 20.23,63.477 h 26.3 l 20.22,-63.477 c 4.55,-14.398 6.82,-22.492 9.11,-32.109 h 0.5 c 2.02,9.098 4.29,16.699 7.33,27.559 l 13.91,48.55 c -5.05,0.508 -10.62,1.27 -15.17,2.532 v 16.945 h 56.64 v -16.945 c -4.55,-1.262 -9.87,-2.024 -14.93,-2.793" /><path
         id="path70"
         style="fill:#615950;fill-opacity:1;fill-rule:nonzero;stroke:none"
         d="m 2802.63,233.707 c -9.61,0 -17.2,7.328 -17.2,16.934 0,9.363 7.59,16.933 17.2,16.933 9.61,0 17.45,-7.57 17.45,-16.933 0,-9.364 -7.84,-16.934 -17.45,-16.934 z m -35.4,-147.9257 v 16.6877 c 6.57,1.519 14.42,2.793 21.99,3.281 v 84.711 c -6.07,1.008 -14.65,2.027 -21.99,2.527 v 16.692 c 14.16,1.519 32.36,2.527 48.81,1.777 V 105.75 c 7.32,-0.488 14.91,-1.762 20.98,-3.281 V 85.7813 h -69.79" /><path
         id="path72"
         style="fill:#615950;fill-opacity:1;fill-rule:nonzero;stroke:none"
         d="m 2901.51,83.5 c -26.81,0 -34.9,10.3711 -34.9,38.43 v 68.531 h -24.02 v 20.996 h 24.02 v 39.938 l 27.06,7.339 v -47.277 h 32.87 v -20.996 h -32.87 v -60.18 c 0,-18.711 3.8,-23.761 16.43,-23.761 5.57,0 10.88,0.761 15.43,1.769 l 2.28,-21.7577 c -7.6,-1.7618 -17.96,-3.0313 -26.3,-3.0313" /><path
         id="path74"
         style="fill:#615950;fill-opacity:1;fill-rule:nonzero;stroke:none"
         d="m 3041.85,85.7813 v 80.6597 c 0,15.688 -4.29,25.028 -18.69,25.028 -18.97,0 -32.89,-19.981 -32.89,-45.258 V 105.75 c 6.59,-0.488 13.41,-1.5 19.48,-3.031 V 85.7813 h -67.26 v 16.6877 c 6.31,1.519 13.65,2.793 20.73,3.281 v 143.621 c -6.06,1.012 -14.42,2.024 -21.5,2.543 v 16.676 c 13.92,1.527 32.12,2.539 48.55,1.773 v -57.144 c 0,-7.828 -0.49,-18.207 -2.27,-25.289 l 0.51,-0.258 c 7.34,15.937 22.25,26.301 42.74,26.301 28.56,0 37.67,-18.203 37.67,-40.203 v -68.02 c 6.83,-0.488 14.4,-1.762 20.73,-3.281 V 85.7813 h -47.8" /><path
         id="path76"
         style="fill:#615950;fill-opacity:1;fill-rule:nonzero;stroke:none"
         d="m 3160.49,85.7813 v 16.6877 c 6.57,1.519 14.41,2.793 22,3.281 v 130.73 c -7.59,0.508 -15.43,1.766 -22,3.297 v 16.672 h 113.03 v -40.945 h -19.98 c -1.26,7.078 -2.53,13.898 -3.04,19.215 h -40.7 v -51.09 h 32.61 c 0.77,5.582 1.78,10.883 3.28,15.691 h 17.2 v -51.582 h -17.2 c -1.5,4.801 -2.77,10.602 -3.28,15.66 h -32.61 v -55.367 h 40.95 c 0.52,6.071 1.78,12.891 3.29,20.231 h 19.97 V 85.7813 h -113.52" /><path
         id="path78"
         style="fill:#615950;fill-opacity:1;fill-rule:nonzero;stroke:none"
         d="m 3385.57,189.699 c -6.84,1.531 -13.41,2.281 -19.98,2.281 -21.49,0 -36.17,-13.148 -36.17,-47.031 0,-25.289 7.85,-39.437 25.04,-39.437 19.98,0 31.11,23.758 31.11,45.258 z m 1.25,-103.9177 c 0,6.5781 0.51,16.4487 1.78,23.5197 h -0.52 c -6.82,-15.4299 -21.48,-26.051 -40.94,-26.051 -30.87,0 -46.28,22.762 -46.28,59.172 0,43.226 25.03,71.058 65.74,71.058 6.07,0 12.13,-0.519 18.97,-1.011 v 36.902 c -6.07,1.012 -14.68,2.024 -22.01,2.543 v 16.676 c 14.16,1.527 32.37,2.539 48.8,1.773 V 106.762 c 6.07,-1.012 14.42,-2.024 20.99,-2.512 V 87.5508 C 3420.2,86.0391 3402,85.0313 3386.82,85.7813" /><path
         id="path80"
         style="fill:#615950;fill-opacity:1;fill-rule:nonzero;stroke:none"
         d="m 3538.32,85.7813 c 0,7.0781 0.5,17.1987 1.77,24.7777 h -0.51 c -7.33,-16.1801 -22.5,-27.309 -43.49,-27.309 -28.57,0 -37.67,18.211 -37.67,40.211 v 67 c -6.07,1.008 -14.16,2.027 -20.74,2.527 v 16.692 c 13.15,1.519 31.1,2.527 47.54,1.777 v -80.668 c 0,-15.68 4.3,-25.039 18.96,-25.039 18.72,0 32.88,19.98 32.88,45.27 v 39.691 c -5.58,0.758 -12.9,1.777 -19.48,2.277 v 16.692 c 13.41,1.777 30.85,2.527 46.27,1.777 V 106.762 c 6.07,-1.012 14.16,-2.024 20.99,-2.512 V 87.5508 c -13.15,-1.5117 -31.35,-2.5195 -46.52,-1.7695" /><path
         id="path82"
         style="fill:#615950;fill-opacity:1;fill-rule:nonzero;stroke:none"
         d="m 3659.47,83.7617 c -33.62,0 -58.4,15.918 -58.4,60.6793 0,39.95 20.48,69.039 63.71,69.039 10.62,0 21.75,-1.531 30.61,-4.308 V 171 h -17.2 c -1.27,6.559 -2.28,12.891 -2.79,18.699 -3.79,1.012 -8.59,1.531 -14.4,1.531 -20.23,0 -31.87,-16.949 -31.87,-42.742 0,-24.527 8.35,-41.468 36.16,-41.468 9.87,0 19.98,2.031 28.32,5.808 l 4.05,-22.7382 c -10.36,-3.5585 -23.51,-6.3281 -38.19,-6.3281" /><path
         id="path84"
         style="fill:#615950;fill-opacity:1;fill-rule:nonzero;stroke:none"
         d="m 3790.73,142.68 c -34.63,0 -48.04,-8.352 -48.04,-21.5 0,-9.848 6.82,-16.93 17.45,-16.93 18.45,0 30.59,17.68 30.59,35.641 z m 2.03,-56.8987 c 0,8.0898 0.24,16.4487 1.25,23.2697 l -0.24,0.25 c -6.07,-14.9221 -22.01,-26.051 -41.72,-26.051 -21.5,0 -35.4,13.3984 -35.4,33.891 0,28.32 28.82,43.23 74.08,43.75 v 8.328 c 0,15.679 -5.82,24.781 -24.52,24.781 -6.83,0 -14.92,-1.512 -21.24,-3.539 -0.52,-5.563 -1.53,-12.133 -2.79,-18.711 h -16.68 v 35.398 c 12.64,4.051 28.06,6.825 42.98,6.825 38.68,0 49.56,-16.672 49.56,-42.485 v -64.726 c 6.07,-1.012 14.16,-2.024 20.99,-2.512 V 87.5508 c -13.14,-1.5117 -31.61,-2.5195 -46.27,-1.7695" /><path
         id="path86"
         style="fill:#615950;fill-opacity:1;fill-rule:nonzero;stroke:none"
         d="m 3902.26,83.5 c -26.79,0 -34.88,10.3711 -34.88,38.43 v 68.531 h -24.03 v 20.996 h 24.03 v 39.938 l 27.05,7.339 v -47.277 h 32.87 v -20.996 h -32.87 v -60.18 c 0,-18.711 3.78,-23.761 16.44,-23.761 5.55,0 10.87,0.761 15.42,1.769 l 2.27,-21.7577 C 3920.99,84.7695 3910.61,83.5 3902.26,83.5" /><path
         id="path88"
         style="fill:#615950;fill-opacity:1;fill-rule:nonzero;stroke:none"
         d="m 4005.2,193.738 c -15.17,0 -25.8,-11.367 -28.07,-28.808 h 53.36 c 0.49,17.691 -9.36,28.808 -25.29,28.808 z m 51.33,-47.527 h -79.91 c -0.74,-28.57 11.39,-41.211 37.17,-41.211 12.13,0 24.79,2.531 36.16,7.34 l 3.54,-20.9884 c -13.14,-5.0625 -28.82,-8.1016 -44.5,-8.1016 -38.69,0 -60.18,20.23 -60.18,64.488 0,37.672 21.49,66.235 57.9,66.235 35.92,0 50.83,-23.754 50.83,-52.332 0,-4.051 -0.26,-10.121 -1.01,-15.43" /><path
         id="path90"
         style="fill:#615950;fill-opacity:1;fill-rule:nonzero;stroke:none"
         d="m 4165.28,189.699 c -6.82,1.531 -13.39,2.281 -19.97,2.281 -21.5,0 -36.15,-13.148 -36.15,-47.031 0,-25.289 7.83,-39.437 25.03,-39.437 19.96,0 31.09,23.758 31.09,45.258 z m 1.27,-103.9177 c 0,6.5781 0.51,16.4487 1.76,23.5197 h -0.49 c -6.83,-15.4299 -21.5,-26.051 -40.97,-26.051 -30.84,0 -46.27,22.762 -46.27,59.172 0,43.226 25.03,71.058 65.74,71.058 6.07,0 12.14,-0.519 18.96,-1.011 v 36.902 c -6.07,1.012 -14.65,2.024 -21.99,2.543 v 16.676 c 14.16,1.527 32.37,2.539 48.81,1.773 V 106.762 c 6.07,-1.012 14.4,-2.024 20.98,-2.512 V 87.5508 c -13.15,-1.5117 -31.36,-2.5195 -46.53,-1.7695" /><path
         id="path92"
         style="fill:#615950;fill-opacity:1;fill-rule:nonzero;stroke:none"
         d="m 4366.35,83.5 c -52.34,0 -78.63,31.871 -78.63,82.941 0,53.352 28.31,92.032 83.94,92.032 13.64,0 27.31,-2.024 40.2,-5.055 v -44.746 h -20.23 c -1.52,8.09 -2.28,15.414 -3.03,22.246 -7.59,1.777 -14.67,2.789 -21.75,2.789 -32.12,0 -49.05,-26.559 -49.05,-62.707 0,-38.43 16.69,-62.711 54.61,-62.711 13.15,0 27.82,3.281 37.93,8.09 l 4.29,-23.7774 C 4400.73,87.3008 4383.03,83.5 4366.35,83.5" /><path
         id="path94"
         style="fill:#615950;fill-opacity:1;fill-rule:nonzero;stroke:none"
         d="m 4531,85.7813 v 80.6597 c 0,15.688 -4.3,25.028 -18.73,25.028 -18.95,0 -32.85,-19.981 -32.85,-45.258 V 105.75 c 6.56,-0.488 13.39,-1.5 19.46,-3.031 V 85.7813 h -67.26 v 16.6877 c 6.33,1.519 13.66,2.793 20.74,3.281 v 143.621 c -6.07,1.012 -14.41,2.024 -21.49,2.543 v 16.676 c 13.9,1.527 32.1,2.539 48.55,1.773 v -57.144 c 0,-7.828 -0.52,-18.207 -2.28,-25.289 l 0.5,-0.258 c 7.33,15.937 22.25,26.301 42.73,26.301 28.58,0 37.68,-18.203 37.68,-40.203 v -68.02 c 6.82,-0.488 14.42,-1.762 20.73,-3.281 V 85.7813 H 4531" /><path
         id="path96"
         style="fill:#615950;fill-opacity:1;fill-rule:nonzero;stroke:none"
         d="m 4627.86,233.707 c -9.61,0 -17.19,7.328 -17.19,16.934 0,9.363 7.58,16.933 17.19,16.933 9.61,0 17.46,-7.57 17.46,-16.933 0,-9.364 -7.85,-16.934 -17.46,-16.934 z m -35.4,-147.9257 v 16.6877 c 6.58,1.519 14.42,2.793 21.99,3.281 v 84.711 c -6.06,1.008 -14.65,2.027 -21.99,2.527 v 16.692 c 14.16,1.519 32.37,2.527 48.81,1.777 V 105.75 c 7.33,-0.488 14.91,-1.762 20.98,-3.281 V 85.7813 h -69.79" /><path
         id="path98"
         style="fill:#615950;fill-opacity:1;fill-rule:nonzero;stroke:none"
         d="m 4672.9,85.7813 v 16.6877 c 6.07,1.519 13.65,2.793 20.73,3.281 v 143.621 c -6.07,1.012 -14.42,2.024 -21.5,2.543 v 16.676 c 14.42,1.527 32.12,2.539 48.55,1.773 V 105.75 c 7.34,-0.488 14.68,-1.762 20.75,-3.281 V 85.7813 h -68.53" /><path
         id="path100"
         style="fill:#615950;fill-opacity:1;fill-rule:nonzero;stroke:none"
         d="m 4842.32,189.699 c -6.82,1.531 -13.39,2.281 -19.97,2.281 -21.5,0 -36.15,-13.148 -36.15,-47.031 0,-25.289 7.83,-39.437 25.03,-39.437 19.97,0 31.09,23.758 31.09,45.258 z m 1.27,-103.9177 c 0,6.5781 0.51,16.4487 1.77,23.5197 h -0.5 c -6.83,-15.4299 -21.49,-26.051 -40.97,-26.051 -30.84,0 -46.27,22.762 -46.27,59.172 0,43.226 25.03,71.058 65.75,71.058 6.06,0 12.13,-0.519 18.95,-1.011 v 36.902 c -6.07,1.012 -14.65,2.024 -21.99,2.543 v 16.676 c 14.16,1.527 32.37,2.539 48.81,1.773 V 106.762 c 6.07,-1.012 14.4,-2.024 20.98,-2.512 V 87.5508 c -13.15,-1.5117 -31.36,-2.5195 -46.53,-1.7695" /><path
         id="path102"
         style="fill:#615950;fill-opacity:1;fill-rule:nonzero;stroke:none"
         d="m 4992.56,187.18 c -27.57,4.8 -39.97,-12.649 -39.97,-50.321 V 105.75 c 7.6,-0.488 15.43,-1.762 22.01,-3.281 V 85.7813 h -70.8 v 16.6877 c 6.57,1.519 14.4,2.793 22,3.281 v 84.711 c -6.06,1.008 -14.68,2.027 -22,2.527 v 16.692 c 14.16,1.519 32.36,2.527 47.53,1.777 0,-7.078 -0.76,-18.207 -2.26,-27.828 h 0.24 c 5.83,16.949 18.45,32.625 44.5,30.098 l -1.25,-26.547" /><path
         id="path104"
         style="fill:#615950;fill-opacity:1;fill-rule:nonzero;stroke:none"
         d="m 5066.42,193.738 c -15.17,0 -25.81,-11.367 -28.08,-28.808 h 53.36 c 0.49,17.691 -9.36,28.808 -25.28,28.808 z m 51.32,-47.527 h -79.9 C 5037.09,117.641 5049.22,105 5075,105 c 12.14,0 24.79,2.531 36.17,7.34 l 3.53,-20.9884 c -13.14,-5.0625 -28.82,-8.1016 -44.5,-8.1016 -38.69,0 -60.18,20.23 -60.18,64.488 0,37.672 21.49,66.235 57.9,66.235 35.92,0 50.83,-23.754 50.83,-52.332 0,-4.051 -0.26,-10.121 -1.01,-15.43" /><path
         id="path106"
         style="fill:#615950;fill-opacity:1;fill-rule:nonzero;stroke:none"
         d="m 5239.64,85.7813 v 80.6597 c 0,15.688 -4.3,25.028 -18.72,25.028 -18.7,0 -32.86,-19.981 -32.86,-45.258 V 105.75 c 6.56,-0.488 13.64,-1.5 19.46,-3.031 V 85.7813 h -68.27 v 16.6877 c 6.58,1.519 14.42,2.793 21.99,3.281 v 84.711 c -6.07,1.008 -14.65,2.027 -21.99,2.527 v 16.692 c 14.16,1.519 32.37,2.527 47.54,1.777 0,-6.586 -0.51,-17.457 -1.76,-24.797 h 0.49 c 7.34,16.192 22.51,27.313 43.49,27.313 28.58,0 37.68,-18.203 37.68,-40.203 v -68.02 c 7.34,-0.488 14.66,-1.762 20.73,-3.281 V 85.7813 h -47.78" /><path
         id="path108"
         style="fill:#615950;fill-opacity:1;fill-rule:nonzero;stroke:none"
         d="m 5319.32,83.25 c -9.85,0 -17.94,8.1016 -17.94,17.961 0,9.859 8.09,17.949 17.94,17.949 9.87,0 17.96,-8.09 17.96,-17.949 0,-9.8594 -8.09,-17.961 -17.96,-17.961" /><path
         id="path110"
         style="fill:#615950;fill-opacity:1;fill-rule:nonzero;stroke:none"
         d="m 5346.45,228.133 h 2.85 c 6.59,0 8.72,3.566 8.72,6.941 0,3.91 -1.78,5.699 -6.95,5.699 h -4.62 z m 11.92,-22.953 -11.38,18.156 h -0.54 V 205.18 h -7.12 v 41.281 h 12.45 c 9.79,0 13.71,-4.266 13.71,-10.496 0,-6.934 -4.28,-11.207 -10.85,-11.922 0.89,-1.063 2.49,-3.375 4.09,-5.684 l 8.54,-13.179 z m -6.94,49.824 c -16.01,0 -28.99,-12.984 -28.99,-29.184 0,-16 12.98,-29.699 28.99,-29.699 16.2,0 29,12.988 29,29.168 0,16.02 -12.8,29.715 -29,29.715 z m 0,-66.895 c -21.16,0 -37.36,16.539 -37.36,37.356 0,20.64 16.73,37.547 37.36,37.547 21.17,0 37.54,-16.375 37.54,-37.547 0,-20.285 -17.26,-37.356 -37.54,-37.356" /><path
         id="path112"
         style="fill:#615950;fill-opacity:1;fill-rule:nonzero;stroke:none"
         d="m 1653.59,885.602 c 10.11,1.023 27.12,1.57 37.23,1.57 59.32,0 85.78,-20.297 85.78,-65.781 0,-43.164 -30.48,-67.93 -83.63,-67.93 h -39.38 z m 221.36,-334.789 -6.25,0.968 -68.12,115.891 c -4.9,7.844 -12.12,18.996 -20.27,30.269 65.16,18.985 103.8,67.082 103.8,129.872 0,95.484 -59.96,141.898 -183.3,141.898 -35.36,0 -79.33,-1.148 -111.45,-1.981 -18.49,-0.492 -33.07,-0.875 -39.85,-0.875 h -60.54 v -66.55 l 3.78,-0.871 c 18.91,-4.364 39.43,-7.547 58.32,-9.063 V 551.848 c -18.89,-1.516 -39.41,-4.7 -58.32,-9.059 l -3.78,-0.875 v -66.551 h 208.15 v 67.016 l -3.46,1.039 c -12.14,3.648 -26.21,6.531 -40.07,8.254 v 123.543 h 24.35 l 109.92,-199.852 h 128.37 v 68.028 l -3.83,0.832 c -13.23,2.882 -26.09,4.851 -37.45,6.59" /><path
         id="path114"
         style="fill:#615950;fill-opacity:1;fill-rule:nonzero;stroke:none"
         d="m 2111.92,555.758 c -50.04,0 -74.37,33.664 -74.37,102.902 0,74.82 39.15,101.485 75.79,101.485 48.4,0 72.93,-34.622 72.93,-102.903 0,-62.597 -28.5,-101.484 -74.35,-101.484 z m 7.85,291.191 c -109.61,0 -186.16,-80.953 -186.16,-196.855 0,-118.977 58.94,-181.864 170.45,-181.864 109.6,0 186.15,80.954 186.15,196.856 0,117.281 -60.53,181.863 -170.44,181.863" /><path
         id="path116"
         style="fill:#615950;fill-opacity:1;fill-rule:nonzero;stroke:none"
         d="m 2510.88,555.758 c -50.04,0 -74.37,33.664 -74.37,102.902 0,74.82 39.15,101.485 75.79,101.485 48.4,0 72.93,-34.622 72.93,-102.903 0,-62.597 -28.5,-101.484 -74.35,-101.484 z m 7.84,291.191 c -109.6,0 -186.15,-80.953 -186.15,-196.855 0,-118.977 58.94,-181.864 170.45,-181.864 109.6,0 186.15,80.954 186.15,196.856 0,117.281 -60.53,181.863 -170.45,181.863" /><path
         id="path118"
         style="fill:#615950;fill-opacity:1;fill-rule:nonzero;stroke:none"
         d="m 3316.52,551.836 v 172.488 c 0,80.227 -38.46,122.625 -111.21,122.625 -56.44,0 -94.9,-30.875 -114.36,-62.996 -10.02,27.485 -35.29,62.996 -99.04,62.996 -45.85,0 -85.9,-20.558 -110.69,-55.914 1.38,15.852 2.07,32.762 2.07,44.625 v 4.727 l -4.71,0.136 c -49.22,1.477 -104.91,-0.902 -149.21,-6.464 l -4.26,-0.532 v -65.922 l 4.52,-0.312 c 18.3,-1.27 40.39,-3.742 57.58,-6.426 V 551.848 c -18.89,-1.516 -39.42,-4.7 -58.33,-9.059 l -3.77,-0.875 v -66.551 h 215.27 v 67.11 l -3.58,0.984 c -13.46,3.676 -30.53,6.602 -48.5,8.324 v 98.313 c 0,66.246 39.55,110.761 76.48,110.761 26.8,0 37.25,-15.648 37.25,-55.804 V 475.363 h 151.76 v 67.11 l -3.58,0.984 c -13.98,3.813 -30.67,6.684 -48.52,8.34 v 98.297 c 0,66.246 39.56,110.761 76.5,110.761 26.8,0 37.24,-15.839 37.24,-56.515 V 475.363 h 158.89 v 66.481 l -3.69,0.929 c -17.85,4.457 -36.45,7.575 -54.11,9.063" /><path
         id="path120"
         style="fill:#615950;fill-opacity:1;fill-rule:nonzero;stroke:none"
         d="m 3754.17,559.844 c -10.95,-3.223 -23.81,-4.797 -39.29,-4.797 -26.27,0 -37.25,7.465 -37.25,53.66 v 150.715 h 86.36 v 80.391 h -86.36 V 974.754 L 3577.26,947.871 V 839.813 h -61.38 v -80.391 h 61.38 V 584.434 c 0,-86.887 27.15,-116.204 107.64,-116.204 23.63,0 52.88,3.786 78.25,10.129 l 4.05,1.012 -7.33,82.141 -5.7,-1.668" /><path
         id="path122"
         style="fill:#615950;fill-opacity:1;fill-rule:nonzero;stroke:none"
         d="m 3971.1,555.758 c -50.03,0 -74.36,33.664 -74.36,102.902 0,74.82 39.14,101.485 75.79,101.485 48.39,0 72.93,-34.622 72.93,-102.903 0,-62.597 -28.5,-101.484 -74.36,-101.484 z m 7.85,291.191 c -109.6,0 -186.15,-80.953 -186.15,-196.855 0,-118.977 58.93,-181.864 170.45,-181.864 109.6,0 186.15,80.954 186.15,196.856 0,117.281 -60.54,181.863 -170.45,181.863" /><path
         id="path124"
         style="fill:#615950;fill-opacity:1;fill-rule:nonzero;stroke:none"
         d="m 4464.84,885.602 c 10.11,1.023 27.14,1.57 37.24,1.57 59.32,0 85.78,-20.297 85.78,-65.781 0,-43.164 -30.48,-67.93 -83.64,-67.93 h -39.38 z m 221.37,-334.789 -6.25,0.968 -68.12,115.891 c -4.9,7.844 -12.12,18.996 -20.26,30.269 65.15,18.985 103.79,67.082 103.79,129.872 0,95.484 -59.96,141.898 -183.3,141.898 -35.36,0 -79.33,-1.148 -111.45,-1.981 -18.49,-0.492 -33.07,-0.875 -39.85,-0.875 h -60.53 v -66.55 l 3.77,-0.871 c 18.9,-4.364 39.43,-7.547 58.32,-9.063 V 551.848 c -18.89,-1.516 -39.42,-4.7 -58.32,-9.059 l -3.77,-0.875 v -66.551 h 208.14 v 67.016 l -3.46,1.039 c -12.15,3.648 -26.23,6.547 -40.08,8.254 v 123.543 h 24.37 l 109.91,-199.852 h 128.37 v 68.028 l -3.83,0.832 c -13.23,2.882 -26.09,4.851 -37.45,6.59" /><path
         id="path126"
         style="fill:#615950;fill-opacity:1;fill-rule:nonzero;stroke:none"
         d="m 4913.19,770.137 c 16.55,0 30.42,-5.289 40.11,-15.282 10.62,-10.949 16.25,-27.402 16.44,-47.796 h -120.21 c 6.2,39.062 30.23,63.078 63.66,63.078 z m 4.99,76.812 c -103.66,0 -173.31,-77.386 -173.31,-192.562 0,-123.532 60.47,-186.157 179.73,-186.157 43,0 90.44,8.434 130.16,23.141 l 3.69,1.367 -11.44,79.27 -5.77,-2.336 c -32.91,-13.301 -67.82,-20.336 -100.93,-20.336 -33.08,0 -56.48,7.394 -71.51,22.59 -14,14.148 -21.01,35.359 -21.39,64.746 h 218.28 l 0.73,3.988 c 3.29,18.098 3.65,41.578 3.65,50.832 0,98.789 -55.36,155.457 -151.89,155.457" /><path
         id="path128"
         style="fill:#615950;fill-opacity:1;fill-rule:nonzero;stroke:none"
         d="m 5249.33,547.188 c -23.06,0 -37.95,14.066 -37.95,35.824 0,20.843 11.33,48.453 108.03,49.34 v -4.372 c 0,-38.859 -26.79,-80.792 -70.08,-80.792 z m 171.87,7.136 v 165.008 c 0,89.949 -45.84,128.328 -153.31,128.328 -40.74,0 -84.85,-6.656 -124.2,-18.765 l -3.43,-1.055 V 715.891 h 65.85 l 0.86,3.785 c 3.49,15.293 5.58,31.789 6.89,43.804 14.85,4.563 32.79,7.368 47.61,7.368 41.15,0 57.94,-15.758 57.94,-54.371 v -15.911 c -130.27,-2.664 -204.84,-50.296 -204.84,-131.113 0,-61.488 41.68,-101.223 106.21,-101.223 44.84,0 84.77,19.696 107.25,51.598 -0.78,-13.125 -0.78,-26.859 -0.78,-40.308 v -4.715 l 4.72,-0.149 c 46.67,-1.492 101.4,0.739 142.77,5.739 l 4.27,0.519 v 66.645 l -4.49,0.339 c -15.77,1.219 -35.84,3.637 -53.32,6.426" /><path
         id="path130"
         style="fill:#615950;fill-opacity:1;fill-rule:nonzero;stroke:none"
         d="m 5667.56,552.902 c -37.54,0 -55.8,31.328 -55.8,95.77 0,76.797 28.37,115.75 84.34,115.75 13.28,0 27.02,-1.531 42.96,-4.797 v -95.25 c 0,-54.043 -25.05,-111.473 -71.5,-111.473 z m 171.87,1.422 V 1006.7 l -4.73,0.12 c -53.57,1.43 -109.53,-0.87 -153.49,-6.46 l -4.25,-0.54 v -65.918 l 4.53,-0.312 c 18.33,-1.274 40.4,-3.746 57.57,-6.426 v -83.113 c -12.76,1.504 -25.36,2.187 -40.1,2.187 -116.99,0 -192.57,-81.472 -192.57,-207.558 0,-108.782 48.85,-171.16 134.04,-171.16 44.79,0 83.17,19.191 106.25,52.238 -1.23,-13.313 -1.91,-27.403 -1.91,-40.238 v -4.727 l 4.72,-0.137 c 49.32,-1.504 104.58,0.981 144.27,6.461 l 4.2,0.59 v 65.836 l -4.49,0.355 c -16.49,1.313 -37.64,3.844 -54.04,6.426" /><path
         id="path132"
         style="fill:#615950;fill-opacity:1;fill-rule:nonzero;stroke:none"
         d="m 6013.95,929.199 h -4.86 v 21.867 h 7.3 c 9.02,0 12.15,-3.113 12.15,-9.714 0,-5.907 -3.83,-12.153 -14.59,-12.153 z m 14.23,-8.679 c 11.11,2.078 18.41,9.718 18.41,22.921 0,12.493 -7.64,20.829 -27.09,20.829 h -27.43 v -79.176 h 17.02 v 32.996 h 1.39 l 18.4,-32.996 h 20.84 l -14.94,25.355 c -2.43,4.168 -4.86,8.336 -6.6,10.071" /><path
         id="path134"
         style="fill:#615950;fill-opacity:1;fill-rule:nonzero;stroke:none"
         d="m 6017.77,867.738 c -30.91,0 -55.56,26.035 -55.56,56.953 0,30.903 24.65,55.899 55.56,55.899 30.9,0 55.56,-26.035 55.56,-56.953 0,-30.547 -24.66,-55.899 -55.56,-55.899 z m 0,132.302 c -42.36,0 -76.75,-33.692 -76.75,-75.704 0,-42.711 33.7,-76.051 76.75,-76.051 41.67,0 76.4,34.375 76.4,76.051 0,42.711 -33.69,75.704 -76.4,75.704" /></g></g></svg>